<svg width="32" height="32" viewBox="0 0 32 32" fill="none" xmlns="http://www.w3.org/2000/svg">
<path fill-rule="evenodd" clip-rule="evenodd" d="M9.20033 10.452C8.73903 6.48003 11.9144 3 16 3C20.0856 3 23.261 6.48003 22.7997 10.452L22.398 13.911C22.0282 17.0948 19.2749 19.5 16 19.5C12.7251 19.5 9.97182 17.0948 9.60205 13.911L9.20033 10.452ZM20.8195 10.2319L20.4178 13.6908C20.1624 15.8893 18.2613 17.55 16 17.55C13.7387 17.55 11.8376 15.8893 11.5822 13.6908L11.1805 10.2319C10.8536 7.41658 13.1042 4.95 16 4.95C18.8958 4.95 21.1464 7.41658 20.8195 10.2319Z" fill="#626F84"/>
<path fill-rule="evenodd" clip-rule="evenodd" d="M4.1792 28.0476C5.11442 23.9298 8.84716 21 13.1583 21H18.8417C23.1528 21 26.8856 23.9298 27.8208 28.0476L27.974 28.7222C28.1229 29.378 27.613 30 26.9264 30H5.07355C4.38703 30 3.87706 29.378 4.02599 28.7222L4.1792 28.0476ZM18.8417 22.95C22.07 22.95 24.8843 25.0473 25.7659 28.05H6.23407C7.11569 25.0473 9.92997 22.95 13.1583 22.95H18.8417Z" fill="#626F84"/>
</svg>
