<svg width="24" height="24" viewBox="0 0 24 24" fill="none" xmlns="http://www.w3.org/2000/svg">
<path fill-rule="evenodd" clip-rule="evenodd" d="M21.6755 22.0866V10.7444C21.6755 9.15928 20.4736 7.87431 18.991 7.87431C17.5083 7.87431 16.3064 9.15928 16.3064 10.7444L16.3064 22.0866H14.6846V17.4596C14.6846 15.8745 13.4827 14.5895 12 14.5895C10.5173 14.5895 9.3154 15.8745 9.3154 17.4596V22.0866H7.69346L7.69346 13.688C7.69346 12.1029 6.49153 10.818 5.00887 10.818C3.52621 10.818 2.32428 12.1029 2.32428 13.688L2.32428 22.0866H0.894864C0.400644 22.0866 -4.32061e-08 22.5149 0 23.0433C4.32061e-08 23.5717 0.400644 24 0.894864 24H3.6315C3.63172 24 3.63128 24 3.6315 24H6.38558C6.38589 24 6.38527 24 6.38558 24H10.622C10.6225 24 10.6216 24 10.622 24H13.3767C13.3772 24 13.3776 24 13.3781 24H17.6126C17.6132 24 17.6137 24 17.6142 24H20.3677C20.3683 24 20.3688 24 20.3694 24H23.1051C23.5994 24 24 23.5717 24 23.0433C24 22.5149 23.5994 22.0866 23.1051 22.0866H21.6755ZM19.8858 22.0866V10.7444C19.8858 10.216 19.4852 9.78768 18.991 9.78768C18.4967 9.78768 18.0961 10.216 18.0961 10.7444V22.0866H19.8858ZM4.11401 22.0866L4.114 13.688C4.114 13.1597 4.51465 12.7313 5.00887 12.7313C5.50309 12.7313 5.90373 13.1597 5.90373 13.688V22.0866H4.11401ZM11.1051 22.0866H12.8949V17.4596C12.8949 16.9312 12.4942 16.5029 12 16.5029C11.5058 16.5029 11.1051 16.9312 11.1051 17.4596V22.0866Z" fill="#626F84"/>
<path fill-rule="evenodd" clip-rule="evenodd" d="M21.7444 2.94365C21.7444 4.56939 20.5116 5.8873 18.9909 5.8873C18.5281 5.8873 18.092 5.76523 17.7092 5.54957L14.5614 8.66861C14.5535 8.6473 14.5454 8.62611 14.537 8.60505C14.6764 8.95722 14.7534 9.34441 14.7534 9.75085C14.7534 11.3766 13.5207 12.6945 12 12.6945C10.4793 12.6945 9.24656 11.3766 9.24656 9.75085C9.24656 9.65515 9.25083 9.56051 9.25918 9.46715L6.84413 8.08174C6.35704 8.54766 5.7139 8.83096 5.00886 8.83096C3.48818 8.83096 2.25543 7.51304 2.25543 5.8873C2.25543 4.26157 3.48818 2.94365 5.00886 2.94365C6.52954 2.94365 7.76229 4.26157 7.76229 5.8873C7.76229 6.06639 7.74733 6.24174 7.71868 6.412L10.0041 7.72304C9.95949 7.77318 9.91653 7.82501 9.87531 7.87841C10.3803 7.22419 11.1446 6.8072 12 6.8072C12.5099 6.8072 12.9874 6.95537 13.3969 7.21363C13.3969 7.21363 13.3969 7.21363 13.3969 7.21363L16.4816 4.15712C16.3248 3.78712 16.2375 3.37629 16.2375 2.94365C16.2375 1.31792 17.4703 0 18.9909 0C20.5116 0 21.7444 1.31792 21.7444 2.94365ZM19.9546 2.94365C19.9546 3.51266 19.5232 3.97393 18.9909 3.97393C18.4587 3.97393 18.0272 3.51266 18.0272 2.94365C18.0272 2.37465 18.4587 1.91337 18.9909 1.91337C19.5232 1.91337 19.9546 2.37465 19.9546 2.94365ZM5.97256 5.8873C5.97256 6.45631 5.5411 6.91758 5.00886 6.91758C4.47662 6.91758 4.04516 6.45631 4.04516 5.8873C4.04516 5.3183 4.47662 4.85703 5.00886 4.85703C5.5411 4.85703 5.97256 5.3183 5.97256 5.8873ZM12 10.7811C12.5322 10.7811 12.9637 10.3199 12.9637 9.75085C12.9637 9.18184 12.5322 8.72057 12 8.72057C11.4678 8.72057 11.0363 9.18184 11.0363 9.75085C11.0363 10.3199 11.4678 10.7811 12 10.7811Z" fill="#626F84"/>
</svg>
