<svg width="32" height="32" viewBox="0 0 32 32" fill="none" xmlns="http://www.w3.org/2000/svg">
<path fill-rule="evenodd" clip-rule="evenodd" d="M25.1058 11.4449L29.6587 16.0837C30.0708 16.4467 30.1161 17.0814 29.7597 17.5013C29.4034 17.9212 28.7804 17.9673 28.3683 17.6042L26.6234 15.8265V27.9899C26.6234 29.1 25.7401 30 24.6505 30H19.7931C18.7034 30 17.8201 29.0999 17.8202 27.9896L17.8212 19.6401H14.1788V27.9899C14.1788 29.1 13.2955 30 12.2059 30L7.34949 30C6.25987 30 5.37656 29.1 5.37656 27.9899V15.8264L3.63167 17.6042C3.21955 17.9673 2.5966 17.9212 2.24027 17.5013C1.88394 17.0814 1.92916 16.4467 2.34128 16.0837L6.8942 11.4449L14.6049 3.58875C15.3754 2.80375 16.6246 2.80375 17.3951 3.58876L25.1058 11.4449ZM24.6505 27.9899H19.7941V19.6401C19.7941 18.5299 18.9108 17.6299 17.8212 17.6299H14.1788C13.0892 17.6299 12.2059 18.5299 12.2059 19.6401V27.9899H7.34949V13.8238L16 5.01013L24.6505 13.8238V27.9899Z" fill="#626F84"/>
</svg>
