<svg width="32" height="32" viewBox="0 0 32 32" fill="none" xmlns="http://www.w3.org/2000/svg">
<path d="M10.3278 7.05693C10.3278 4.81635 12.1729 3 14.4491 3H17.5595C19.8356 3 21.6808 4.81635 21.6808 7.05693C21.6808 7.60651 21.2282 8.05203 20.6699 8.05203C20.1116 8.05203 19.659 7.60651 19.659 7.05693C19.659 5.9155 18.719 4.99019 17.5595 4.99019H14.4491C13.2895 4.99019 12.3495 5.9155 12.3495 7.05693C12.3495 7.60651 11.897 8.05203 11.3387 8.05203C10.7804 8.05203 10.3278 7.60651 10.3278 7.05693Z" fill="#626F84"/>
<path fill-rule="evenodd" clip-rule="evenodd" d="M2 14.4072C2 11.8659 4.08398 9.81443 6.66564 9.81443L25.3344 9.81443C27.9005 9.81443 30 11.8659 30 14.4072L30 24.4073C30 26.9486 27.916 29 25.3344 29H6.66564C4.08398 29 2 26.9486 2 24.4073V14.4072ZM27.9782 14.4072C27.9782 12.9681 26.7963 11.8046 25.3344 11.8046L6.66564 11.8046C5.20374 11.8046 4.02178 12.9681 4.02178 14.4072V16.2011L4.02302 17.0642C4.02302 17.7417 4.2773 18.3953 4.73702 18.8995C5.26641 19.48 6.02157 19.8117 6.81409 19.8117H25.2043C25.9908 19.8117 26.7403 19.4827 27.2659 18.9068C27.723 18.4061 27.9758 17.7567 27.9758 17.0835V16.214H27.9782V14.4072ZM27.9782 20.9315C27.1746 21.4928 26.2068 21.8019 25.2043 21.8019H23.236V24.0437C23.236 24.5933 22.7834 25.0388 22.2251 25.0388C21.6668 25.0388 21.2143 24.5933 21.2143 24.0437V21.8019H10.7943V24.0462C10.7943 24.5958 10.3417 25.0413 9.78344 25.0413C9.22515 25.0413 8.77255 24.5958 8.77255 24.0462V21.8019H6.81409C5.80449 21.8019 4.83006 21.4897 4.02178 20.923V24.4073C4.02178 25.8463 5.20374 27.0098 6.66564 27.0098H25.3344C26.7963 27.0098 27.9782 25.8463 27.9782 24.4073V20.9315Z" fill="#626F84"/>
</svg>
