<svg width="62" height="58" viewBox="0 0 62 58" fill="none" xmlns="http://www.w3.org/2000/svg">
<g filter="url(#filter0_d)">
<rect x="11" y="8" width="40" height="40" rx="15" fill="#065F46"/>
</g>
<path d="M24.998 30.4844C24.998 29.9876 24.8636 29.6071 24.5947 29.3428C24.3258 29.0785 23.8405 28.821 23.1387 28.5703C22.4368 28.3197 21.8991 28.0576 21.5254 27.7842C21.1562 27.5062 20.8783 27.1917 20.6914 26.8408C20.5091 26.4854 20.418 26.0798 20.418 25.624C20.418 24.8356 20.68 24.1862 21.2041 23.6758C21.7327 23.1654 22.4232 22.9102 23.2754 22.9102C23.8587 22.9102 24.3783 23.0423 24.834 23.3066C25.2897 23.5664 25.6406 23.9287 25.8867 24.3936C26.1328 24.8584 26.2559 25.3688 26.2559 25.9248H24.998C24.998 25.3096 24.8499 24.8333 24.5537 24.4961C24.2575 24.1589 23.8314 23.9902 23.2754 23.9902C22.7695 23.9902 22.3776 24.1315 22.0996 24.4141C21.8216 24.6966 21.6826 25.0931 21.6826 25.6035C21.6826 26.0228 21.833 26.3737 22.1338 26.6562C22.4346 26.9388 22.8994 27.1917 23.5283 27.415C24.5081 27.7386 25.2077 28.1374 25.627 28.6113C26.0508 29.0853 26.2627 29.7051 26.2627 30.4707C26.2627 31.2773 26.0007 31.9245 25.4766 32.4121C24.9525 32.8952 24.2393 33.1367 23.3369 33.1367C22.7581 33.1367 22.2227 33.0114 21.7305 32.7607C21.2428 32.5055 20.8577 32.1501 20.5752 31.6943C20.2972 31.234 20.1582 30.7077 20.1582 30.1152H21.416C21.416 30.7305 21.5869 31.209 21.9287 31.5508C22.2751 31.8926 22.7445 32.0635 23.3369 32.0635C23.8883 32.0635 24.3031 31.9222 24.5811 31.6396C24.859 31.3571 24.998 30.972 24.998 30.4844ZM34.4111 33H33.1533L29.168 25.3301V33H27.9102V23.0469H29.168L33.167 30.751V23.0469H34.4111V33ZM37.8496 27.4082H38.6221C39.1188 27.4082 39.5016 27.2555 39.7705 26.9502C40.0394 26.6449 40.1738 26.2279 40.1738 25.6992C40.1738 24.5326 39.7227 23.9492 38.8203 23.9492C38.3874 23.9492 38.0479 24.1064 37.8018 24.4209C37.5557 24.7354 37.4326 25.1478 37.4326 25.6582H36.2295C36.2295 24.8607 36.471 24.2044 36.9541 23.6895C37.4417 23.1699 38.0638 22.9102 38.8203 22.9102C39.6042 22.9102 40.2262 23.1562 40.6865 23.6484C41.1468 24.1361 41.377 24.8288 41.377 25.7266C41.377 26.1868 41.2562 26.6175 41.0146 27.0186C40.7777 27.415 40.4678 27.7067 40.085 27.8936C41.0238 28.2399 41.4932 29.0169 41.4932 30.2246C41.4932 31.1133 41.2448 31.8219 40.748 32.3506C40.2559 32.8747 39.611 33.1367 38.8135 33.1367C38.0251 33.1367 37.387 32.8883 36.8994 32.3916C36.4163 31.8903 36.1748 31.2181 36.1748 30.375H37.3848C37.3848 30.9036 37.5124 31.3252 37.7676 31.6396C38.0228 31.9495 38.3714 32.1045 38.8135 32.1045C39.2646 32.1045 39.6224 31.9518 39.8867 31.6465C40.1556 31.3411 40.29 30.8763 40.29 30.252C40.29 29.0443 39.7181 28.4404 38.5742 28.4404H37.8496V27.4082Z" fill="white"/>
<defs>
<filter id="filter0_d" x="0" y="0" width="62" height="62" filterUnits="userSpaceOnUse" color-interpolation-filters="sRGB">
<feFlood flood-opacity="0" result="BackgroundImageFix"/>
<feColorMatrix in="SourceAlpha" type="matrix" values="0 0 0 0 0 0 0 0 0 0 0 0 0 0 0 0 0 0 127 0" result="hardAlpha"/>
<feMorphology radius="1" operator="dilate" in="SourceAlpha" result="effect1_dropShadow"/>
<feOffset dy="3"/>
<feGaussianBlur stdDeviation="5"/>
<feComposite in2="hardAlpha" operator="out"/>
<feColorMatrix type="matrix" values="0 0 0 0 0 0 0 0 0 0 0 0 0 0 0 0 0 0 0.35 0"/>
<feBlend mode="normal" in2="BackgroundImageFix" result="effect1_dropShadow"/>
<feBlend mode="normal" in="SourceGraphic" in2="effect1_dropShadow" result="shape"/>
</filter>
</defs>
</svg>
