<svg width="390" height="124" viewBox="0 0 390 124" fill="none" xmlns="http://www.w3.org/2000/svg">
<g filter="url(#filter0_d)">
<g clip-path="url(#clip0)">
<rect x="-1" width="390" height="115" fill="#1B2B46"/>
<path d="M40.0156 55.293H35.1465V49H19.7129V55.2754H14.7207L14.4395 44.7637H16.373C17.416 43.8965 18.2188 42.625 18.7812 40.9492C19.3555 39.2617 19.7422 37.1758 19.9414 34.6914L20.6797 23.4062H37.4492V44.7637H40.4375L40.0156 55.293ZM22.4199 44.7637H32.1758V27.6777H25.6895L25.25 34.4102C24.8984 38.9219 23.9551 42.373 22.4199 44.7637ZM53.9023 49C53.668 48.543 53.498 47.9746 53.3926 47.2949C52.1621 48.666 50.5625 49.3516 48.5938 49.3516C46.7305 49.3516 45.1836 48.8125 43.9531 47.7344C42.7344 46.6562 42.125 45.2969 42.125 43.6562C42.125 41.6406 42.8691 40.0938 44.3574 39.0156C45.8574 37.9375 48.0195 37.3926 50.8438 37.3809H53.1816V36.291C53.1816 35.4121 52.9531 34.709 52.4961 34.1816C52.0508 33.6543 51.3418 33.3906 50.3691 33.3906C49.5137 33.3906 48.8398 33.5957 48.3477 34.0059C47.8672 34.416 47.627 34.9785 47.627 35.6934H42.5469C42.5469 34.5918 42.8867 33.5723 43.5664 32.6348C44.2461 31.6973 45.207 30.9648 46.4492 30.4375C47.6914 29.8984 49.0859 29.6289 50.6328 29.6289C52.9766 29.6289 54.834 30.2207 56.2051 31.4043C57.5879 32.5762 58.2793 34.2285 58.2793 36.3613V44.6055C58.291 46.4102 58.543 47.7754 59.0352 48.7012V49H53.9023ZM49.7012 45.4668C50.4512 45.4668 51.1426 45.3027 51.7754 44.9746C52.4082 44.6348 52.877 44.1836 53.1816 43.6211V40.3516H51.2832C48.7402 40.3516 47.3867 41.2305 47.2227 42.9883L47.2051 43.2871C47.2051 43.9199 47.4277 44.4414 47.873 44.8516C48.3184 45.2617 48.9277 45.4668 49.7012 45.4668ZM62.5156 49V29.9805H70.4609C73.0508 29.9805 75.0371 30.4375 76.4199 31.3516C77.8027 32.2656 78.4941 33.5781 78.4941 35.2891C78.4941 36.168 78.2012 36.959 77.6152 37.6621C77.041 38.3535 76.1973 38.8867 75.084 39.2617C76.4434 39.5195 77.5098 40.0293 78.2832 40.791C79.0684 41.541 79.4609 42.4668 79.4609 43.5684C79.4609 45.3379 78.793 46.6855 77.457 47.6113C76.1328 48.5371 74.2051 49 71.6738 49H62.5156ZM67.5957 41.1074V44.9395H71.6914C73.4844 44.9395 74.3809 44.3125 74.3809 43.0586C74.3809 41.7812 73.5254 41.1309 71.8145 41.1074H67.5957ZM67.5957 37.6973H70.7422C72.5234 37.6738 73.4141 37.0996 73.4141 35.9746C73.4141 35.2832 73.168 34.791 72.6758 34.498C72.1953 34.2051 71.457 34.0586 70.4609 34.0586H67.5957V37.6973ZM93.5938 49C93.3594 48.543 93.1895 47.9746 93.084 47.2949C91.8535 48.666 90.2539 49.3516 88.2852 49.3516C86.4219 49.3516 84.875 48.8125 83.6445 47.7344C82.4258 46.6562 81.8164 45.2969 81.8164 43.6562C81.8164 41.6406 82.5605 40.0938 84.0488 39.0156C85.5488 37.9375 87.7109 37.3926 90.5352 37.3809H92.873V36.291C92.873 35.4121 92.6445 34.709 92.1875 34.1816C91.7422 33.6543 91.0332 33.3906 90.0605 33.3906C89.2051 33.3906 88.5312 33.5957 88.0391 34.0059C87.5586 34.416 87.3184 34.9785 87.3184 35.6934H82.2383C82.2383 34.5918 82.5781 33.5723 83.2578 32.6348C83.9375 31.6973 84.8984 30.9648 86.1406 30.4375C87.3828 29.8984 88.7773 29.6289 90.3242 29.6289C92.668 29.6289 94.5254 30.2207 95.8965 31.4043C97.2793 32.5762 97.9707 34.2285 97.9707 36.3613V44.6055C97.9824 46.4102 98.2344 47.7754 98.7266 48.7012V49H93.5938ZM89.3926 45.4668C90.1426 45.4668 90.834 45.3027 91.4668 44.9746C92.0996 44.6348 92.5684 44.1836 92.873 43.6211V40.3516H90.9746C88.4316 40.3516 87.0781 41.2305 86.9141 42.9883L86.8965 43.2871C86.8965 43.9199 87.1191 44.4414 87.5645 44.8516C88.0098 45.2617 88.6191 45.4668 89.3926 45.4668ZM113.334 29.9805H118.414V49H113.334V37.2578L106.971 49H101.873V29.9805H106.971V41.7051L113.334 29.9805ZM116.322 22.2637C116.322 23.8223 115.76 25.082 114.635 26.043C113.521 27.0039 112.057 27.4844 110.24 27.4844C108.424 27.4844 106.953 27.0098 105.828 26.0605C104.715 25.1113 104.158 23.8457 104.158 22.2637H107.762C107.762 23.002 107.979 23.5762 108.412 23.9863C108.857 24.3848 109.467 24.584 110.24 24.584C111.002 24.584 111.6 24.3848 112.033 23.9863C112.467 23.5762 112.684 23.002 112.684 22.2637H116.322ZM138.084 34.0586H131.984V49H126.887V34.0586H120.893V29.9805H138.084V34.0586ZM148.279 49.3516C145.49 49.3516 143.217 48.4961 141.459 46.7852C139.713 45.0742 138.84 42.7949 138.84 39.9473V39.4551C138.84 37.5449 139.209 35.8398 139.947 34.3398C140.686 32.8281 141.729 31.668 143.076 30.8594C144.436 30.0391 145.982 29.6289 147.717 29.6289C150.318 29.6289 152.363 30.4492 153.852 32.0898C155.352 33.7305 156.102 36.0566 156.102 39.0684V41.1426H143.99C144.154 42.3848 144.646 43.3809 145.467 44.1309C146.299 44.8809 147.348 45.2559 148.613 45.2559C150.57 45.2559 152.1 44.5469 153.201 43.1289L155.697 45.9238C154.936 47.002 153.904 47.8457 152.604 48.4551C151.303 49.0527 149.861 49.3516 148.279 49.3516ZM147.699 33.7422C146.691 33.7422 145.871 34.082 145.238 34.7617C144.617 35.4414 144.219 36.4141 144.043 37.6797H151.109V37.2754C151.086 36.1504 150.781 35.2832 150.195 34.6738C149.609 34.0527 148.777 33.7422 147.699 33.7422ZM32.4922 91H27.3945V76.0938H21.0312V91H15.9512V71.9805H32.4922V91ZM35.5859 81.3145C35.5859 79.4277 35.9492 77.7461 36.6758 76.2695C37.4023 74.793 38.4453 73.6504 39.8047 72.8418C41.1758 72.0332 42.7637 71.6289 44.5684 71.6289C47.1348 71.6289 49.2266 72.4141 50.8438 73.9844C52.4727 75.5547 53.3809 77.6875 53.5684 80.3828L53.6035 81.6836C53.6035 84.6016 52.7891 86.9453 51.1602 88.7148C49.5312 90.4727 47.3457 91.3516 44.6035 91.3516C41.8613 91.3516 39.6699 90.4727 38.0293 88.7148C36.4004 86.957 35.5859 84.5664 35.5859 81.543V81.3145ZM40.666 81.6836C40.666 83.4883 41.0059 84.8711 41.6855 85.832C42.3652 86.7812 43.3379 87.2559 44.6035 87.2559C45.834 87.2559 46.7949 86.7871 47.4863 85.8496C48.1777 84.9004 48.5234 83.3887 48.5234 81.3145C48.5234 79.5449 48.1777 78.1738 47.4863 77.2012C46.7949 76.2285 45.8223 75.7422 44.5684 75.7422C43.3262 75.7422 42.3652 76.2285 41.6855 77.2012C41.0059 78.1621 40.666 79.6562 40.666 81.6836ZM66.7168 77.5879C66.7168 76.9199 66.4941 76.4043 66.0488 76.041C65.6152 75.666 64.9941 75.4785 64.1855 75.4785C63.3535 75.4785 62.6738 75.6543 62.1465 76.0059C61.6309 76.3457 61.373 76.832 61.373 77.4648H56.293C56.293 75.7422 57.0078 74.3418 58.4375 73.2637C59.8672 72.1855 61.6953 71.6465 63.9219 71.6465C66.3711 71.6465 68.293 72.127 69.6875 73.0879C71.0938 74.0488 71.7969 75.4141 71.7969 77.1836C71.7969 78.0273 71.5391 78.8066 71.0234 79.5215C70.5195 80.2246 69.8047 80.7871 68.8789 81.209C71.0469 81.9707 72.1309 83.4414 72.1309 85.6211C72.1309 87.3672 71.3809 88.7617 69.8809 89.8047C68.3926 90.8359 66.4062 91.3516 63.9219 91.3516C61.6133 91.3516 59.7148 90.8125 58.2266 89.7344C56.7383 88.6562 55.9941 87.2031 55.9941 85.375H61.0742C61.0742 86.0195 61.3613 86.541 61.9355 86.9395C62.5098 87.3379 63.2598 87.5371 64.1855 87.5371C65.0879 87.5371 65.791 87.3262 66.2949 86.9043C66.7988 86.4824 67.0508 85.9316 67.0508 85.252C67.0508 84.4199 66.8105 83.8281 66.3301 83.4766C65.8496 83.1133 65.1289 82.9316 64.168 82.9316H61.4082V79.627H64.3438C65.9258 79.5801 66.7168 78.9004 66.7168 77.5879ZM91.7129 91H86.6152V83.6875H80.3047V91H75.2246V71.9805H80.3047V79.6094H86.6152V71.9805H91.7129V91ZM106.672 91C106.438 90.543 106.268 89.9746 106.162 89.2949C104.932 90.666 103.332 91.3516 101.363 91.3516C99.5 91.3516 97.9531 90.8125 96.7227 89.7344C95.5039 88.6562 94.8945 87.2969 94.8945 85.6562C94.8945 83.6406 95.6387 82.0938 97.127 81.0156C98.627 79.9375 100.789 79.3926 103.613 79.3809H105.951V78.291C105.951 77.4121 105.723 76.709 105.266 76.1816C104.82 75.6543 104.111 75.3906 103.139 75.3906C102.283 75.3906 101.609 75.5957 101.117 76.0059C100.637 76.416 100.396 76.9785 100.396 77.6934H95.3164C95.3164 76.5918 95.6562 75.5723 96.3359 74.6348C97.0156 73.6973 97.9766 72.9648 99.2188 72.4375C100.461 71.8984 101.855 71.6289 103.402 71.6289C105.746 71.6289 107.604 72.2207 108.975 73.4043C110.357 74.5762 111.049 76.2285 111.049 78.3613V86.6055C111.061 88.4102 111.312 89.7754 111.805 90.7012V91H106.672ZM102.471 87.4668C103.221 87.4668 103.912 87.3027 104.545 86.9746C105.178 86.6348 105.646 86.1836 105.951 85.6211V82.3516H104.053C101.51 82.3516 100.156 83.2305 99.9922 84.9883L99.9746 85.2871C99.9746 85.9199 100.197 86.4414 100.643 86.8516C101.088 87.2617 101.697 87.4668 102.471 87.4668ZM122.404 83.9863H120.365V91H115.285V71.9805H120.365V79.1348H122.176L126.324 71.9805H132.74L126.518 81.0332L133.32 91H126.553L122.404 83.9863ZM133.426 81.3145C133.426 79.4277 133.789 77.7461 134.516 76.2695C135.242 74.793 136.285 73.6504 137.645 72.8418C139.016 72.0332 140.604 71.6289 142.408 71.6289C144.975 71.6289 147.066 72.4141 148.684 73.9844C150.312 75.5547 151.221 77.6875 151.408 80.3828L151.443 81.6836C151.443 84.6016 150.629 86.9453 149 88.7148C147.371 90.4727 145.186 91.3516 142.443 91.3516C139.701 91.3516 137.51 90.4727 135.869 88.7148C134.24 86.957 133.426 84.5664 133.426 81.543V81.3145ZM138.506 81.6836C138.506 83.4883 138.846 84.8711 139.525 85.832C140.205 86.7812 141.178 87.2559 142.443 87.2559C143.674 87.2559 144.635 86.7871 145.326 85.8496C146.018 84.9004 146.363 83.3887 146.363 81.3145C146.363 79.5449 146.018 78.1738 145.326 77.2012C144.635 76.2285 143.662 75.7422 142.408 75.7422C141.166 75.7422 140.205 76.2285 139.525 77.2012C138.846 78.1621 138.506 79.6562 138.506 81.6836ZM166.156 85.0059L171.131 71.9805H177.494V91H172.414V79.3281L167.861 91H164.451L159.986 79.5215V91H154.906V71.9805H161.217L166.156 85.0059ZM193.385 71.9805H198.465V91H193.385V79.2578L187.021 91H181.924V71.9805H187.021V83.7051L193.385 71.9805ZM213.934 85.0059L218.908 71.9805H225.271V91H220.191V79.3281L215.639 91H212.229L207.764 79.5215V91H202.684V71.9805H208.994L213.934 85.0059ZM237.611 87.2559C238.549 87.2559 239.311 86.998 239.896 86.4824C240.482 85.9668 240.787 85.2812 240.811 84.4258H245.574C245.562 85.7148 245.211 86.8984 244.52 87.9766C243.828 89.043 242.879 89.875 241.672 90.4727C240.477 91.0586 239.152 91.3516 237.699 91.3516C234.98 91.3516 232.836 90.4902 231.266 88.7676C229.695 87.0332 228.91 84.6426 228.91 81.5957V81.2617C228.91 78.332 229.689 75.9941 231.248 74.248C232.807 72.502 234.945 71.6289 237.664 71.6289C240.043 71.6289 241.947 72.3086 243.377 73.668C244.818 75.0156 245.551 76.8145 245.574 79.0645H240.811C240.787 78.0801 240.482 77.2832 239.896 76.6738C239.311 76.0527 238.537 75.7422 237.576 75.7422C236.393 75.7422 235.496 76.1758 234.887 77.043C234.289 77.8984 233.99 79.293 233.99 81.2266V81.7539C233.99 83.7109 234.289 85.1172 234.887 85.9727C235.484 86.8281 236.393 87.2559 237.611 87.2559ZM264.33 71.9805V91H259.268V84.4258H256.051L252.395 91H247.244L251.393 83.5645C250.256 83.0371 249.377 82.3223 248.756 81.4199C248.146 80.5176 247.842 79.4922 247.842 78.3438C247.842 76.5039 248.551 74.998 249.969 73.8262C251.398 72.6426 253.309 72.0273 255.699 71.9805H264.33ZM255.787 80.875H259.268V76.0586H255.963C255.061 76.0586 254.328 76.2988 253.766 76.7793C253.203 77.248 252.922 77.8223 252.922 78.502C252.922 79.1816 253.191 79.7441 253.73 80.1895C254.27 80.6348 254.955 80.8633 255.787 80.875ZM273.787 83.1426H269.568L268.971 65.4062H274.385L273.787 83.1426ZM271.678 85.9199C272.533 85.9199 273.219 86.1719 273.734 86.6758C274.262 87.1797 274.525 87.8242 274.525 88.6094C274.525 89.3828 274.262 90.0215 273.734 90.5254C273.219 91.0293 272.533 91.2812 271.678 91.2812C270.834 91.2812 270.148 91.0293 269.621 90.5254C269.105 90.0215 268.848 89.3828 268.848 88.6094C268.848 87.8359 269.105 87.1973 269.621 86.6934C270.148 86.1777 270.834 85.9199 271.678 85.9199Z" fill="#DDDDDD"/>
<path opacity="0.7" d="M375.068 5.94922V-16.0938H361.82V5.94922C354.102 6.32031 347.014 8.06445 340.557 11.1816C334.1 14.2246 328.496 18.3809 323.746 23.6504C319.07 28.8457 315.396 34.9687 312.725 42.0195C310.127 48.9961 308.828 56.5664 308.828 64.7305C308.828 72.9688 310.127 80.6133 312.725 87.6641C315.396 94.6406 319.07 100.727 323.746 105.922C328.496 111.117 334.1 115.236 340.557 118.279C347.014 121.322 354.102 123.029 361.82 123.4V146H375.068V123.4C382.787 123.104 389.875 121.396 396.332 118.279C402.789 115.162 408.355 110.969 413.031 105.699C417.781 100.504 421.455 94.418 424.053 87.4414C426.725 80.3906 428.061 72.7461 428.061 64.5078C428.061 56.3438 426.725 48.7734 424.053 41.7969C421.455 34.8203 417.781 28.7344 413.031 23.5391C408.355 18.3437 402.752 14.2246 396.221 11.1816C389.764 8.06445 382.713 6.32031 375.068 5.94922ZM322.076 64.7305C322.076 58.125 323.004 52.0391 324.859 46.4727C326.715 40.832 329.387 35.8965 332.875 31.666C336.289 27.5098 340.445 24.207 345.344 21.7578C350.242 19.2344 355.734 17.7871 361.82 17.416V111.934C355.734 111.637 350.242 110.264 345.344 107.814C340.445 105.291 336.289 101.951 332.875 97.7949C329.387 93.6387 326.715 88.7402 324.859 83.0996C323.004 77.459 322.076 71.3359 322.076 64.7305ZM414.812 64.5078C414.812 71.1133 413.885 77.2734 412.029 82.9883C410.174 88.6289 407.502 93.5273 404.014 97.6836C400.6 101.914 396.443 105.291 391.545 107.814C386.646 110.264 381.154 111.637 375.068 111.934V17.416C381.154 17.7129 386.609 19.123 391.434 21.6465C396.332 24.0957 400.525 27.3984 404.014 31.5547C407.502 35.7109 410.174 40.6094 412.029 46.25C413.885 51.8164 414.812 57.9023 414.812 64.5078Z" fill="#CCCCCC"/>
</g>
<rect x="-1.25" y="-0.25" width="390.5" height="115.5" stroke="#172030" stroke-opacity="0.4" stroke-width="0.5"/>
</g>
<defs>
<filter id="filter0_d" x="-5.5" y="-0.5" width="399" height="124" filterUnits="userSpaceOnUse" color-interpolation-filters="sRGB">
<feFlood flood-opacity="0" result="BackgroundImageFix"/>
<feColorMatrix in="SourceAlpha" type="matrix" values="0 0 0 0 0 0 0 0 0 0 0 0 0 0 0 0 0 0 127 0" result="hardAlpha"/>
<feOffset dy="4"/>
<feGaussianBlur stdDeviation="2"/>
<feColorMatrix type="matrix" values="0 0 0 0 0 0 0 0 0 0 0 0 0 0 0 0 0 0 0.25 0"/>
<feBlend mode="normal" in2="BackgroundImageFix" result="effect1_dropShadow"/>
<feBlend mode="normal" in="SourceGraphic" in2="effect1_dropShadow" result="shape"/>
</filter>
<clipPath id="clip0">
<rect x="-1" width="390" height="115" fill="white"/>
</clipPath>
</defs>
</svg>
