<svg width="24" height="24" viewBox="0 0 24 24" fill="none" xmlns="http://www.w3.org/2000/svg">
<path fill-rule="evenodd" clip-rule="evenodd" d="M0 4.79508C0 2.14683 2.01472 0 4.5 0H19.5C21.9853 0 24 2.14683 24 4.79508V14.3853C24 17.0335 21.9853 19.1803 19.5 19.1803H8.28329L3.16815 23.5408C1.89137 24.6292 0 23.6605 0 21.9182V4.79508ZM1.95 21.9182L7.59926 17.1025H19.5C20.9083 17.1025 22.05 15.8859 22.05 14.3853V4.79508C22.05 3.29441 20.9083 2.07787 19.5 2.07787H4.5C3.09167 2.07787 1.95 3.29441 1.95 4.79508L1.95 21.9182ZM6.73828 7.42223C6.73828 6.84845 7.1748 6.3833 7.71328 6.3833H16.2868C16.8253 6.3833 17.2618 6.84845 17.2618 7.42223C17.2618 7.99602 16.8253 8.46117 16.2868 8.46117L7.71328 8.46117C7.1748 8.46117 6.73828 7.99602 6.73828 7.42223ZM6.73828 12.2054C6.73828 11.6316 7.1748 11.1665 7.71328 11.1665H13.1868C13.7253 11.1665 14.1618 11.6316 14.1618 12.2054C14.1618 12.7792 13.7253 13.2444 13.1868 13.2444L7.71328 13.2444C7.1748 13.2444 6.73828 12.7792 6.73828 12.2054Z" fill="#626F84"/>
</svg>
