<svg width="24" height="24" viewBox="0 0 24 24" fill="none" xmlns="http://www.w3.org/2000/svg">
<path fill-rule="evenodd" clip-rule="evenodd" d="M0.847531 9.76136C-0.273506 9.07767 -0.284861 7.17645 0.827894 6.47388L10.2905 0.499358C11.3451 -0.166452 12.6086 -0.166453 13.6632 0.499357L23.1258 6.47388C23.5815 6.76159 23.8486 7.2503 23.9283 7.7741C23.953 7.86437 23.9663 7.96073 23.9663 8.06078L24 17.0435C24 17.5555 23.6511 17.9705 23.2207 17.9705C22.7903 17.9705 22.4414 17.5555 22.4414 17.0435L22.4156 10.1825L19.9258 11.701V17.7833C19.9258 19.0725 19.4455 20.2954 18.6142 21.1226C14.7589 24.9591 9.14678 24.9591 5.29144 21.1226C4.4602 20.2954 3.97988 19.0725 3.97988 17.7833V11.6717L0.847531 9.76136ZM1.55863 8.11153L11.0213 2.137C11.6188 1.75971 12.3349 1.75971 12.9324 2.137L22.3951 8.11153L12.9067 13.8982C12.3229 14.2542 11.6308 14.2542 11.047 13.8982L1.55863 8.11153ZM5.53851 12.6222V17.7833C5.53851 18.5235 5.81428 19.2256 6.29154 19.7005C9.56806 22.9611 14.3376 22.9611 17.6141 19.7005C18.0914 19.2256 18.3672 18.5235 18.3672 17.7833V12.6515L13.6178 15.548C12.5876 16.1763 11.3661 16.1763 10.3359 15.548L5.53851 12.6222Z" fill="#626F84"/>
</svg>
